<svg xmlns="http://www.w3.org/2000/svg" xmlns:xlink="http://www.w3.org/1999/xlink" width="1920"
    zoomAndPan="magnify" viewBox="0 0 1440 884.999995" height="1180"
    preserveAspectRatio="xMidYMid meet" version="1.0" stroke="#FEc11C">
    <defs>
        <clipPath id="4aab87b6d1">
            <path d="M 685 400 L 816.6875 400 L 816.6875 533 L 685 533 Z M 685 400 "
                clip-rule="nonzero" />
        </clipPath>
        <clipPath id="7762c8d26e">
            <path d="M 184 27.359375 L 332 27.359375 L 332 144 L 184 144 Z M 184 27.359375 "
                clip-rule="nonzero" />
        </clipPath>
        <clipPath id="d70219d4d8">
            <path d="M 435 741 L 583 741 L 583 857.609375 L 435 857.609375 Z M 435 741 "
                clip-rule="nonzero" />
        </clipPath>
        <clipPath id="c450cbdfb6">
            <path d="M 101 741 L 249 741 L 249 857.609375 L 101 857.609375 Z M 101 741 "
                clip-rule="nonzero" />
        </clipPath>

        <linearGradient id="teste">
            <stop stop-color="red" offset="50%"/>
            <stop stop-color="blue" offset="100%"/>
        </linearGradient>
    </defs>
    <path stroke-linecap="round"
        transform="matrix(0.868666, 0, 0, 0.868735, -53.751848, 300.281871)" fill="none"
        stroke-linejoin="miter"
        d="M 104.000482 80.000674 L 39.583288 79.757864 L 7.583795 23.853116 L 40.001494 -31.813318 L 104.414191 -31.570508 L 136.418181 24.33424 Z M 104.000482 80.000674 "
         stroke-width="3.543" stroke-opacity="1" stroke-miterlimit="4" />
    <path stroke-linecap="round" transform="matrix(0.868666, 0, 0, 0.868735, -54.83768, 202.192993)"
        fill="none" stroke-linejoin="miter"
        d="M 104.00036 79.999562 L 39.583167 79.761249 L 7.583673 23.852005 L 40.001373 -31.809932 L 104.414069 -31.571619 L 136.41806 24.333129 Z M 104.00036 79.999562 "
         stroke-width="3.543" stroke-opacity="1" stroke-miterlimit="4" />
    <path stroke-linecap="round" transform="matrix(0.868666, 0, 0, 0.868735, 28.55426, 250.842138)"
        fill="none" stroke-linejoin="miter"
        d="M 103.998846 79.998748 L 39.58615 79.760435 L 7.582159 23.855687 L 39.999859 -31.810747 L 104.417052 -31.572433 L 136.416546 24.332314 Z M 103.998846 79.998748 "
         stroke-width="3.543" stroke-opacity="1" stroke-miterlimit="4" />
    <path stroke-linecap="round" transform="matrix(0.868666, 0, 0, 0.868735, 28.919095, 153.752341)"
        fill="none" stroke-linejoin="miter"
        d="M 104.001555 79.998694 L 39.584362 79.760381 L 7.584868 23.855633 L 39.998071 -31.810801 L 104.415264 -31.572487 L 136.414758 24.33226 Z M 104.001555 79.998694 "
         stroke-width="3.543" stroke-opacity="1" stroke-miterlimit="4" />
    <path stroke-linecap="round" transform="matrix(0.868666, 0, 0, 0.868735, 112.311035, 202.4015)"
        fill="none" stroke-linejoin="miter"
        d="M 104.000041 79.997864 L 39.582848 79.75955 L 7.583354 23.854803 L 40.001054 -31.811631 L 104.418247 -31.573318 L 136.417741 24.335926 Z M 104.000041 79.997864 "
         stroke-width="3.543" stroke-opacity="1" stroke-miterlimit="4" />
    <path stroke-linecap="round" transform="matrix(0.868666, 0, 0, 0.868735, 28.919095, 348.427122)"
        fill="none" stroke-linejoin="miter"
        d="M 104.001555 79.999846 L 39.584362 79.761532 L 7.584868 23.852288 L 39.998071 -31.814146 L 104.415264 -31.571336 L 136.414758 24.333412 Z M 104.001555 79.999846 "
         stroke-width="3.543" stroke-opacity="1" stroke-miterlimit="4" />
    <path stroke-linecap="round"
        transform="matrix(0.868666, 0, 0, 0.868735, 112.311035, 397.076281)" fill="none"
        stroke-linejoin="miter"
        d="M 104.000041 79.999015 L 39.582848 79.760701 L 7.583354 23.855954 L 40.001054 -31.81048 L 104.418247 -31.572167 L 136.417741 24.332581 Z M 104.000041 79.999015 "
         stroke-width="3.543" stroke-opacity="1" stroke-miterlimit="4" />
    <path stroke-linecap="round"
        transform="matrix(0.868666, 0, 0, 0.868735, 112.667226, 299.986501)" fill="none"
        stroke-linejoin="miter"
        d="M 103.99921 79.998942 L 39.582016 79.760628 L 7.582523 23.855881 L 40.000222 -31.810553 L 104.417416 -31.57224 L 136.416909 24.332508 Z M 103.99921 79.998942 "
         stroke-width="3.543" stroke-opacity="1" stroke-miterlimit="4" />
    <path stroke-linecap="round"
        transform="matrix(0.868666, 0, 0, 0.868735, 196.059194, 348.635629)" fill="none"
        stroke-linejoin="miter"
        d="M 104.00216 79.998147 L 39.584967 79.759833 L 7.585473 23.855086 L 39.998676 -31.811348 L 104.415869 -31.573035 L 136.415363 24.336209 Z M 104.00216 79.998147 "
         stroke-width="3.543" stroke-opacity="1" stroke-miterlimit="4" />
    <path stroke-linecap="round"
        transform="matrix(0.868666, 0, 0, 0.868735, -54.116713, 494.669997)" fill="none"
        stroke-linejoin="miter"
        d="M 103.997808 79.999055 L 39.585111 79.760741 L 7.585618 23.855994 L 39.99882 -31.81044 L 104.416014 -31.572127 L 136.415507 24.332621 Z M 103.997808 79.999055 "
         stroke-width="3.543" stroke-opacity="1" stroke-miterlimit="4" />
    <path stroke-linecap="round"
        transform="matrix(0.868666, 0, 0, 0.868735, -53.751848, 397.580156)" fill="none"
        stroke-linejoin="miter"
        d="M 104.000482 79.99905 L 39.583288 79.760737 L 7.583795 23.85599 L 40.001494 -31.810444 L 104.414191 -31.572131 L 136.418181 24.332616 Z M 104.000482 79.99905 "
         stroke-width="3.543" stroke-opacity="1" stroke-miterlimit="4" />
    <path stroke-linecap="round" transform="matrix(0.868666, 0, 0, 0.868735, 29.64012, 446.229311)"
        fill="none" stroke-linejoin="miter"
        d="M 103.998936 79.998225 L 39.58624 79.759912 L 7.582249 23.855164 L 39.999949 -31.81127 L 104.417142 -31.572956 L 136.416636 24.331791 Z M 103.998936 79.998225 "
         stroke-width="3.543" stroke-opacity="1" stroke-miterlimit="4" />
    <path stroke-linecap="round"
        transform="matrix(0.868666, 0, 0, 0.868735, -53.751848, 592.254952)" fill="none"
        stroke-linejoin="miter"
        d="M 104.000482 80.000185 L 39.583288 79.761872 L 7.583795 23.852628 L 40.001494 -31.813806 L 104.414191 -31.570996 L 136.418181 24.333751 Z M 104.000482 80.000185 "
         stroke-width="3.543" stroke-opacity="1" stroke-miterlimit="4" />
    <path stroke-linecap="round" transform="matrix(0.868666, 0, 0, 0.868735, 29.64012, 640.904174)"
        fill="none" stroke-linejoin="miter"
        d="M 103.998936 79.999282 L 39.58624 79.760969 L 7.582249 23.856221 L 39.999949 -31.810213 L 104.417142 -31.571899 L 136.416636 24.332848 Z M 103.998936 79.999282 "
         stroke-width="3.543" stroke-opacity="1" stroke-miterlimit="4" />
    <path stroke-linecap="round" transform="matrix(0.868666, 0, 0, 0.868735, 29.996253, 543.814338)"
        fill="none" stroke-linejoin="miter"
        d="M 103.998172 79.999273 L 39.585475 79.760959 L 7.585981 23.856212 L 39.999184 -31.810222 L 104.416378 -31.571909 L 136.415871 24.332839 Z M 103.998172 79.999273 "
         stroke-width="3.543" stroke-opacity="1" stroke-miterlimit="4" />
    <path stroke-linecap="round" transform="matrix(0.868666, 0, 0, 0.868735, 113.388162, 592.46344)"
        fill="none" stroke-linejoin="miter"
        d="M 104.00119 79.998508 L 39.583997 79.760195 L 7.584503 23.855447 L 40.002203 -31.810987 L 104.414899 -31.572673 L 136.414393 24.332074 Z M 104.00119 79.998508 "
         stroke-width="3.543" stroke-opacity="1" stroke-miterlimit="4" />
    <path stroke-linecap="round"
        transform="matrix(0.868666, 0, 0, 0.868735, 112.311035, 494.374557)" fill="none"
        stroke-linejoin="miter"
        d="M 104.000041 80.001899 L 39.582848 79.759089 L 7.583354 23.854342 L 40.001054 -31.812092 L 104.418247 -31.573779 L 136.417741 24.335465 Z M 104.000041 80.001899 "
         stroke-width="3.543" stroke-opacity="1" stroke-miterlimit="4" />
    <path stroke-linecap="round"
        transform="matrix(0.868666, 0, 0, 0.868735, 195.703003, 543.023778)" fill="none"
        stroke-linejoin="miter"
        d="M 103.998495 80.000996 L 39.585799 79.758187 L 7.581808 23.853439 L 39.999508 -31.812995 L 104.416701 -31.570185 L 136.416195 24.334563 Z M 103.998495 80.000996 "
         stroke-width="3.543" stroke-opacity="1" stroke-miterlimit="4" />
    <path stroke-linecap="round"
        transform="matrix(0.868666, 0, 0, 0.868735, 196.059194, 445.933967)" fill="none"
        stroke-linejoin="miter"
        d="M 104.00216 80.000959 L 39.584967 79.758149 L 7.585473 23.853402 L 39.998676 -31.813032 L 104.415869 -31.570222 L 136.415363 24.334525 Z M 104.00216 80.000959 "
         stroke-width="3.543" stroke-opacity="1" stroke-miterlimit="4" />
    <path stroke-linecap="round"
        transform="matrix(0.868666, 0, 0, 0.868735, 279.451044, 494.583165)" fill="none"
        stroke-linejoin="miter"
        d="M 104.00075 80.000084 L 39.583556 79.761771 L 7.584063 23.852527 L 40.001762 -31.813907 L 104.414459 -31.571097 L 136.413952 24.33365 Z M 104.00075 80.000084 "
         stroke-width="3.543" stroke-opacity="1" stroke-miterlimit="4" />
    <path stroke-linecap="round"
        transform="matrix(0.868666, 0, 0, 0.868735, 196.059194, 640.617422)" fill="none"
        stroke-linejoin="miter"
        d="M 104.00216 80.001119 L 39.584967 79.758309 L 7.585473 23.853562 L 39.998676 -31.812872 L 104.415869 -31.570062 L 136.415363 24.334685 Z M 104.00216 80.001119 "
         stroke-width="3.543" stroke-opacity="1" stroke-miterlimit="4" />
    <path stroke-linecap="round"
        transform="matrix(0.868666, 0, 0, 0.868735, 279.451044, 689.266619)" fill="none"
        stroke-linejoin="miter"
        d="M 104.00075 80.000244 L 39.583556 79.761931 L 7.584063 23.852687 L 40.001762 -31.813747 L 104.414459 -31.570937 L 136.413952 24.33381 Z M 104.00075 80.000244 "
         stroke-width="3.543" stroke-opacity="1" stroke-miterlimit="4" />
    <path stroke-linecap="round"
        transform="matrix(0.868666, 0, 0, 0.868735, 279.815909, 592.176784)" fill="none"
        stroke-linejoin="miter"
        d="M 103.998927 80.000235 L 39.58623 79.761921 L 7.58224 23.852677 L 39.999939 -31.813757 L 104.417133 -31.570947 L 136.416626 24.333801 Z M 103.998927 80.000235 "
         stroke-width="3.543" stroke-opacity="1" stroke-miterlimit="4" />
    <path stroke-linecap="round"
        transform="matrix(0.868666, 0, 0, 0.868735, 363.207877, 640.825886)" fill="none"
        stroke-linejoin="miter"
        d="M 104.001878 79.99947 L 39.584684 79.761156 L 7.58519 23.851913 L 39.998393 -31.810025 L 104.415587 -31.571711 L 136.41508 24.333036 Z M 104.001878 79.99947 "
         stroke-width="3.543" stroke-opacity="1" stroke-miterlimit="4" />
    <path stroke-linecap="round"
        transform="matrix(0.868666, 0, 0, 0.868735, 278.365244, 396.659298)" fill="none"
        stroke-linejoin="miter"
        d="M 104.000592 79.99788 L 39.583399 79.759567 L 7.583905 23.854819 L 40.001605 -31.811615 L 104.414301 -31.573301 L 136.413795 24.335943 Z M 104.000592 79.99788 "
         stroke-width="3.543" stroke-opacity="1" stroke-miterlimit="4" />
    <path stroke-linecap="round"
        transform="matrix(0.868666, 0, 0, 0.868735, 361.757214, 445.308479)" fill="none"
        stroke-linejoin="miter"
        d="M 103.999043 80.001521 L 39.58185 79.758711 L 7.582356 23.853964 L 40.000056 -31.81247 L 104.417249 -31.574157 L 136.416743 24.335087 Z M 103.999043 80.001521 "
         stroke-width="3.543" stroke-opacity="1" stroke-miterlimit="4" />
    <path stroke-linecap="round"
        transform="matrix(0.868666, 0, 0, 0.868735, 362.122019, 348.218646)" fill="none"
        stroke-linejoin="miter"
        d="M 104.001786 80.001509 L 39.584593 79.758699 L 7.585099 23.853951 L 39.998302 -31.812483 L 104.415495 -31.574169 L 136.414989 24.335075 Z M 104.001786 80.001509 "
         stroke-width="3.543" stroke-opacity="1" stroke-miterlimit="4" />
    <path stroke-linecap="round"
        transform="matrix(0.868666, 0, 0, 0.868735, 445.513975, 396.867803)" fill="none"
        stroke-linejoin="miter"
        d="M 104.000254 80.00068 L 39.583061 79.757871 L 7.583567 23.853123 L 40.001267 -31.813311 L 104.413963 -31.570501 L 136.417954 24.334247 Z M 104.000254 80.00068 "
         stroke-width="3.543" stroke-opacity="1" stroke-miterlimit="4" />
    <path stroke-linecap="round"
        transform="matrix(0.868666, 0, 0, 0.868735, 362.122019, 542.902146)" fill="none"
        stroke-linejoin="miter"
        d="M 104.001786 80.001616 L 39.584593 79.758806 L 7.585099 23.854059 L 39.998302 -31.812375 L 104.415495 -31.574062 L 136.414989 24.335182 Z M 104.001786 80.001616 "
         stroke-width="3.543" stroke-opacity="1" stroke-miterlimit="4" />
    <path stroke-linecap="round"
        transform="matrix(0.868666, 0, 0, 0.868735, 445.513975, 591.551248)" fill="none"
        stroke-linejoin="miter"
        d="M 104.000254 80.000852 L 39.583061 79.758042 L 7.583567 23.853294 L 40.001267 -31.81314 L 104.413963 -31.57033 L 136.417954 24.334418 Z M 104.000254 80.000852 "
         stroke-width="3.543" stroke-opacity="1" stroke-miterlimit="4" />
    <path stroke-linecap="round"
        transform="matrix(0.868666, 0, 0, 0.868735, 445.878847, 494.461509)" fill="none"
        stroke-linejoin="miter"
        d="M 103.998423 80.000731 L 39.585726 79.757921 L 7.586233 23.853174 L 39.999435 -31.81326 L 104.416629 -31.57045 L 136.416122 24.334297 Z M 103.998423 80.000731 "
         stroke-width="3.543" stroke-opacity="1" stroke-miterlimit="4" />
    <path stroke-linecap="round" transform="matrix(0.868666, 0, 0, 0.868735, 529.305507, 543.11061)"
        fill="none" stroke-linejoin="miter"
        d="M 104.001908 79.999967 L 39.584715 79.761653 L 7.585221 23.852409 L 39.998424 -31.814025 L 104.415617 -31.571215 L 136.415111 24.333533 Z M 104.001908 79.999967 "
         stroke-width="3.543" stroke-opacity="1" stroke-miterlimit="4" />
    <path stroke-linecap="round"
        transform="matrix(0.868666, 0, 0, 0.868735, 529.305507, 445.812335)" fill="none"
        stroke-linejoin="miter"
        d="M 104.001908 80.001579 L 39.584715 79.758769 L 7.585221 23.854021 L 39.998424 -31.812413 L 104.415617 -31.574099 L 136.415111 24.335145 Z M 104.001908 80.001579 "
         stroke-width="3.543" stroke-opacity="1" stroke-miterlimit="4" />
    <path stroke-linecap="round"
        transform="matrix(0.868666, 0, 0, 0.868735, 612.697487, 494.461509)" fill="none"
        stroke-linejoin="miter"
        d="M 104.000348 80.000731 L 39.583155 79.757921 L 7.583661 23.853174 L 40.001361 -31.81326 L 104.414057 -31.57045 L 136.418048 24.334297 Z M 104.000348 80.000731 "
         stroke-width="3.543" stroke-opacity="1" stroke-miterlimit="4" />
    <path stroke-linecap="round" transform="matrix(0.868666, 0, 0, 0.868735, 613.044935, 397.37168)"
        fill="none" stroke-linejoin="miter"
        d="M 104.000588 80.000713 L 39.583395 79.757904 L 7.583901 23.853156 L 40.0016 -31.813278 L 104.414297 -31.570468 L 136.413791 24.33428 Z M 104.000588 80.000713 "
         stroke-width="3.543" stroke-opacity="1" stroke-miterlimit="4" />
    <g clip-path="url(#4aab87b6d1)">
        <path stroke-linecap="round"
            transform="matrix(0.868666, 0, 0, 0.868735, 696.436843, 446.020871)" fill="none"
            stroke-linejoin="miter"
            d="M 103.999111 79.999847 L 39.581917 79.761533 L 7.582424 23.852289 L 40.000123 -31.814145 L 104.417317 -31.571335 L 136.41681 24.333413 Z M 103.999111 79.999847 "
             stroke-width="3.543" stroke-opacity="1" stroke-miterlimit="4" />
    </g>
    <path stroke-linecap="round"
        transform="matrix(0.868666, 0, 0, 0.868735, 195.703003, 251.215731)" fill="none"
        stroke-linejoin="miter"
        d="M 103.998495 80.000367 L 39.585799 79.762054 L 7.581808 23.85281 L 39.999508 -31.813624 L 104.416701 -31.570814 L 136.416195 24.333933 Z M 103.998495 80.000367 "
         stroke-width="3.543" stroke-opacity="1" stroke-miterlimit="4" />
    <path stroke-linecap="round"
        transform="matrix(0.868666, 0, 0, 0.868735, 279.094913, 299.864859)" fill="none"
        stroke-linejoin="miter"
        d="M 104.001512 79.999572 L 39.584319 79.761259 L 7.584825 23.852015 L 39.998028 -31.809923 L 104.415221 -31.571609 L 136.414715 24.333138 Z M 104.001512 79.999572 "
         stroke-width="3.543" stroke-opacity="1" stroke-miterlimit="4" />
    <path stroke-linecap="round"
        transform="matrix(0.868666, 0, 0, 0.868735, 279.451044, 202.775065)" fill="none"
        stroke-linejoin="miter"
        d="M 104.00075 79.999516 L 39.583556 79.761202 L 7.584063 23.851958 L 40.001762 -31.809979 L 104.414459 -31.571666 L 136.413952 24.333082 Z M 104.00075 79.999516 "
         stroke-width="3.543" stroke-opacity="1" stroke-miterlimit="4" />
    <path stroke-linecap="round"
        transform="matrix(0.868666, 0, 0, 0.868735, 362.843015, 251.424207)" fill="none"
        stroke-linejoin="miter"
        d="M 103.999201 79.998704 L 39.582008 79.760391 L 7.582514 23.855643 L 40.000213 -31.810791 L 104.417407 -31.572477 L 136.4169 24.33227 Z M 103.999201 79.998704 "
         stroke-width="3.543" stroke-opacity="1" stroke-miterlimit="4" />
    <path stroke-linecap="round"
        transform="matrix(0.868666, 0, 0, 0.868735, 448.137343, 204.017355)" fill="none"
        stroke-linejoin="miter"
        d="M 104.002133 79.999397 L 39.58494 79.761084 L 7.585446 23.85184 L 39.998649 -31.810098 L 104.415842 -31.571784 L 136.415336 24.332963 Z M 104.002133 79.999397 "
         stroke-width="3.543" stroke-opacity="1" stroke-miterlimit="4" />
    <path stroke-linecap="round" transform="matrix(0.868666, 0, 0, 0.868735, 111.94617, 104.975494)"
        fill="none" stroke-linejoin="miter"
        d="M 104.001864 79.998122 L 39.584671 79.759808 L 7.585177 23.855061 L 39.99838 -31.811373 L 104.415573 -31.573059 L 136.415067 24.336184 Z M 104.001864 79.998122 "
         stroke-width="3.543" stroke-opacity="1" stroke-miterlimit="4" />
    <path stroke-linecap="round" transform="matrix(0.868666, 0, 0, 0.868735, 195.33814, 153.62203)"
        fill="none" stroke-linejoin="miter"
        d="M 104.000315 80.000311 L 39.583122 79.761997 L 7.583628 23.852753 L 40.001328 -31.813681 L 104.414024 -31.570871 L 136.418015 24.333877 Z M 104.000315 80.000311 "
         stroke-width="3.543" stroke-opacity="1" stroke-miterlimit="4" />
    <g clip-path="url(#7762c8d26e)">
        <path stroke-linecap="round"
            transform="matrix(0.868666, 0, 0, 0.868735, 195.703003, 56.534835)" fill="none"
            stroke-linejoin="miter"
            d="M 103.998495 80.001759 L 39.585799 79.758949 L 7.581808 23.854201 L 39.999508 -31.812233 L 104.416701 -31.573919 L 136.416195 24.335325 Z M 103.998495 80.001759 "
             stroke-width="3.543" stroke-opacity="1" stroke-miterlimit="4" />
    </g>
    <path stroke-linecap="round"
        transform="matrix(0.868666, 0, 0, 0.868735, 279.094913, 105.183985)" fill="none"
        stroke-linejoin="miter"
        d="M 104.001512 80.000939 L 39.584319 79.758129 L 7.584825 23.853381 L 39.998028 -31.813053 L 104.415221 -31.570243 L 136.414715 24.334505 Z M 104.001512 80.000939 "
         stroke-width="3.543" stroke-opacity="1" stroke-miterlimit="4" />
    <path stroke-linecap="round"
        transform="matrix(0.868666, 0, 0, 0.868735, -53.395688, 689.683571)" fill="none"
        stroke-linejoin="miter"
        d="M 103.999686 80.001415 L 39.582493 79.758605 L 7.582999 23.853857 L 40.000699 -31.812577 L 104.417892 -31.569767 L 136.417386 24.334981 Z M 103.999686 80.001415 "
         stroke-width="3.543" stroke-opacity="1" stroke-miterlimit="4" />
    <path stroke-linecap="round"
        transform="matrix(0.868666, 0, 0, 0.868735, 362.843015, 737.915721)" fill="none"
        stroke-linejoin="miter"
        d="M 103.999201 79.99948 L 39.582008 79.761166 L 7.582514 23.851922 L 40.000213 -31.810015 L 104.417407 -31.571702 L 136.4169 24.333046 Z M 103.999201 79.99948 "
         stroke-width="3.543" stroke-opacity="1" stroke-miterlimit="4" />
    <g clip-path="url(#d70219d4d8)">
        <path stroke-linecap="round"
            transform="matrix(0.868666, 0, 0, 0.868735, 446.234983, 786.564823)" fill="none"
            stroke-linejoin="miter"
            d="M 104.002152 79.998715 L 39.584958 79.760402 L 7.585465 23.855654 L 39.998667 -31.81078 L 104.415861 -31.572466 L 136.415354 24.332281 Z M 104.002152 79.998715 "
             stroke-width="3.543" stroke-opacity="1" stroke-miterlimit="4" />
    </g>
    <path stroke-linecap="round"
        transform="matrix(0.868666, 0, 0, 0.868735, 446.599783, 689.475107)" fill="none"
        stroke-linejoin="miter"
        d="M 104.000403 79.998567 L 39.58321 79.760254 L 7.583716 23.855506 L 40.001416 -31.810928 L 104.414112 -31.572614 L 136.418103 24.332133 Z M 104.000403 79.998567 "
         stroke-width="3.543" stroke-opacity="1" stroke-miterlimit="4" />
    <path stroke-linecap="round"
        transform="matrix(0.868666, 0, 0, 0.868735, 530.000427, 738.124209)" fill="none"
        stroke-linejoin="miter"
        d="M 103.997863 79.997803 L 39.585167 79.759489 L 7.585673 23.854742 L 39.998876 -31.811692 L 104.416069 -31.573379 L 136.415563 24.335865 Z M 103.997863 79.997803 "
         stroke-width="3.543" stroke-opacity="1" stroke-miterlimit="4" />
    <path stroke-linecap="round" transform="matrix(0.868666, 0, 0, 0.868735, 29.275227, 737.828889)"
        fill="none" stroke-linejoin="miter"
        d="M 104.000791 80.000509 L 39.583598 79.762196 L 7.584104 23.852952 L 40.001803 -31.813482 L 104.4145 -31.570672 L 136.413994 24.334075 Z M 104.000791 80.000509 "
         stroke-width="3.543" stroke-opacity="1" stroke-miterlimit="4" />
    <g clip-path="url(#c450cbdfb6)">
        <path stroke-linecap="round"
            transform="matrix(0.868666, 0, 0, 0.868735, 112.667226, 786.477991)" fill="none"
            stroke-linejoin="miter"
            d="M 103.99921 79.999745 L 39.582016 79.761431 L 7.582523 23.852187 L 40.000222 -31.80975 L 104.417416 -31.571437 L 136.416909 24.333311 Z M 103.99921 79.999745 "
             stroke-width="3.543" stroke-opacity="1" stroke-miterlimit="4" />
    </g>
    <path stroke-linecap="round"
        transform="matrix(0.868666, 0, 0, 0.868735, 113.032031, 689.388155)" fill="none"
        stroke-linejoin="miter"
        d="M 104.001953 79.999735 L 39.584759 79.761422 L 7.585266 23.852178 L 39.998468 -31.80976 L 104.415662 -31.571446 L 136.415155 24.333301 Z M 104.001953 79.999735 "
         stroke-width="3.543" stroke-opacity="1" stroke-miterlimit="4" />
    <path stroke-linecap="round"
        transform="matrix(0.868666, 0, 0, 0.868735, 196.423941, 738.037377)" fill="none"
        stroke-linejoin="miter"
        d="M 104.000473 79.998832 L 39.58328 79.760519 L 7.583786 23.855771 L 40.001485 -31.810663 L 104.414182 -31.572349 L 136.418172 24.332398 Z M 104.000473 79.998832 "
         stroke-width="3.543" stroke-opacity="1" stroke-miterlimit="4" />
</svg>