<svg xmlns="http://www.w3.org/2000/svg" xmlns:xlink="http://www.w3.org/1999/xlink" width="960" zoomAndPan="magnify" viewBox="0 0 720 404.99999" height="540" preserveAspectRatio="xMidYMid meet" version="1.0"><defs><g/><clipPath id="ea11bb509e"><path d="M 42.597656 63.511719 L 308.847656 63.511719 L 308.847656 354.511719 L 42.597656 354.511719 Z M 42.597656 63.511719 " clip-rule="nonzero"/></clipPath><clipPath id="d5218118fc"><path d="M 61.5 63.511719 L 327.75 63.511719 L 327.75 354.511719 L 61.5 354.511719 Z M 61.5 63.511719 " clip-rule="nonzero"/></clipPath></defs><g clip-path="url(#ea11bb509e)"><path fill="#000000" d="M 306.382812 120.917969 L 263.074219 95.929688 C 263.886719 93.488281 264.433594 90.921875 264.433594 88.210938 C 264.433594 74.617188 253.375 63.554688 239.78125 63.554688 C 226.191406 63.554688 215.128906 74.617188 215.128906 88.210938 C 215.128906 101.804688 226.191406 112.863281 239.78125 112.863281 C 247.117188 112.863281 253.640625 109.582031 258.160156 104.480469 L 298.988281 128.039062 L 298.988281 196.304688 L 239.820312 230.441406 L 180.664062 196.308594 L 180.664062 125.203125 C 180.664062 123.4375 179.726562 121.8125 178.199219 120.929688 L 114.101562 83.949219 C 112.570312 83.066406 110.703125 83.066406 109.171875 83.949219 L 45.074219 120.929688 C 43.546875 121.8125 42.609375 123.4375 42.609375 125.203125 L 42.609375 199.164062 C 42.609375 200.925781 43.546875 202.554688 45.074219 203.433594 L 106.695312 238.988281 L 106.695312 312.558594 C 106.695312 314.324219 107.632812 315.949219 109.160156 316.832031 L 173.257812 353.8125 C 174.023438 354.253906 174.871094 354.472656 175.722656 354.472656 C 176.574219 354.472656 177.429688 354.253906 178.1875 353.8125 L 222.929688 327.980469 C 227.347656 332.140625 233.253906 334.738281 239.78125 334.738281 C 253.375 334.738281 264.433594 323.675781 264.433594 310.082031 C 264.433594 296.488281 253.375 285.429688 239.78125 285.429688 C 226.1875 285.429688 215.128906 296.488281 215.128906 310.082031 C 215.128906 313.574219 215.878906 316.890625 217.195312 319.902344 L 175.722656 343.847656 L 116.558594 309.710938 L 116.558594 239 L 175.738281 204.855469 L 237.355469 240.402344 C 238.121094 240.84375 238.96875 241.0625 239.820312 241.0625 C 240.671875 241.0625 241.519531 240.84375 242.285156 240.402344 L 306.382812 203.421875 C 307.910156 202.542969 308.847656 200.914062 308.847656 199.152344 L 308.847656 125.1875 C 308.847656 123.425781 307.910156 121.800781 306.382812 120.917969 Z M 239.78125 103.003906 C 231.625 103.003906 224.992188 96.367188 224.992188 88.210938 C 224.992188 80.054688 231.625 73.417969 239.78125 73.417969 C 247.9375 73.417969 254.574219 80.054688 254.574219 88.210938 C 254.574219 96.367188 247.9375 103.003906 239.78125 103.003906 Z M 239.78125 295.289062 C 247.9375 295.289062 254.574219 301.925781 254.574219 310.082031 C 254.574219 318.238281 247.9375 324.875 239.78125 324.875 C 231.625 324.875 224.992188 318.238281 224.992188 310.082031 C 224.992188 301.925781 231.625 295.289062 239.78125 295.289062 Z M 170.800781 196.316406 L 111.636719 230.453125 L 52.46875 196.316406 L 52.46875 128.050781 L 111.636719 93.910156 L 170.800781 128.050781 Z M 170.800781 196.316406 " fill-opacity="1" fill-rule="nonzero"/></g><g fill="#000000" fill-opacity="1"><g transform="translate(428.851069, 245.176368)"><g><path d="M 10.5625 -73.953125 L 21.125 -73.953125 L 21.125 -42.25 L 52.8125 -42.25 L 52.8125 -73.953125 L 63.390625 -73.953125 L 63.390625 0 L 52.8125 0 L 52.8125 -31.6875 L 21.125 -31.6875 L 21.125 0 L 10.5625 0 Z M 10.5625 -73.953125 "/></g></g></g><g fill="#000000" fill-opacity="1"><g transform="translate(492.226057, 245.176368)"><g><path d="M 10.5625 -52.8125 L 31.6875 -52.8125 L 31.6875 -10.5625 L 42.25 -10.5625 L 42.25 0 L 21.125 0 L 21.125 -42.25 L 10.5625 -42.25 Z M 21.125 -73.953125 L 31.6875 -73.953125 L 31.6875 -63.390625 L 21.125 -63.390625 Z M 21.125 -73.953125 "/></g></g></g><g fill="#000000" fill-opacity="1"><g transform="translate(534.476033, 245.176368)"><g><path d="M 10.5625 -52.8125 L 21.125 -52.8125 L 21.125 -28.734375 L 36.96875 -12.890625 L 52.8125 -28.734375 L 52.8125 -52.8125 L 63.390625 -52.8125 L 63.390625 -24.078125 L 39.296875 0 L 34.65625 0 L 10.5625 -24.078125 Z M 10.5625 -52.8125 "/></g></g></g><g fill="#000000" fill-opacity="1"><g transform="translate(597.851022, 245.176368)"><g><path d="M 10.5625 -52.8125 L 63.390625 -52.8125 L 63.390625 -21.125 L 21.125 -21.125 L 21.125 -10.5625 L 63.390625 -10.5625 L 63.390625 0 L 10.5625 0 Z M 21.125 -42.25 L 21.125 -31.6875 L 52.8125 -31.6875 L 52.8125 -42.25 Z M 21.125 -42.25 "/></g></g></g><g clip-path="url(#d5218118fc)"><path fill="#ffbd59" d="M 325.285156 120.917969 L 281.976562 95.929688 C 282.789062 93.488281 283.335938 90.921875 283.335938 88.210938 C 283.335938 74.617188 272.277344 63.554688 258.683594 63.554688 C 245.089844 63.554688 234.03125 74.617188 234.03125 88.210938 C 234.03125 101.804688 245.089844 112.863281 258.683594 112.863281 C 266.015625 112.863281 272.539062 109.582031 277.058594 104.480469 L 317.886719 128.039062 L 317.886719 196.304688 L 258.722656 230.441406 L 199.566406 196.308594 L 199.566406 125.203125 C 199.566406 123.4375 198.625 121.8125 197.097656 120.929688 L 133.003906 83.949219 C 131.472656 83.066406 129.601562 83.066406 128.070312 83.949219 L 63.972656 120.929688 C 62.449219 121.8125 61.507812 123.4375 61.507812 125.203125 L 61.507812 199.164062 C 61.507812 200.925781 62.449219 202.554688 63.972656 203.433594 L 125.597656 238.988281 L 125.597656 312.558594 C 125.597656 314.324219 126.535156 315.949219 128.0625 316.832031 L 192.160156 353.8125 C 192.925781 354.253906 193.773438 354.472656 194.625 354.472656 C 195.476562 354.472656 196.328125 354.253906 197.089844 353.8125 L 241.832031 327.980469 C 246.246094 332.140625 252.152344 334.738281 258.683594 334.738281 C 272.277344 334.738281 283.335938 323.675781 283.335938 310.082031 C 283.335938 296.488281 272.277344 285.429688 258.683594 285.429688 C 245.089844 285.429688 234.03125 296.488281 234.03125 310.082031 C 234.03125 313.574219 234.78125 316.890625 236.097656 319.902344 L 194.625 343.847656 L 135.457031 309.710938 L 135.457031 239 L 194.640625 204.855469 L 256.257812 240.402344 C 257.023438 240.84375 257.871094 241.0625 258.722656 241.0625 C 259.574219 241.0625 260.421875 240.84375 261.1875 240.402344 L 325.285156 203.421875 C 326.8125 202.542969 327.75 200.914062 327.75 199.152344 L 327.75 125.1875 C 327.75 123.425781 326.8125 121.800781 325.285156 120.917969 Z M 258.683594 103.003906 C 250.527344 103.003906 243.890625 96.367188 243.890625 88.210938 C 243.890625 80.054688 250.527344 73.417969 258.683594 73.417969 C 266.839844 73.417969 273.476562 80.054688 273.476562 88.210938 C 273.476562 96.367188 266.839844 103.003906 258.683594 103.003906 Z M 258.683594 295.289062 C 266.839844 295.289062 273.476562 301.925781 273.476562 310.082031 C 273.476562 318.238281 266.839844 324.875 258.683594 324.875 C 250.527344 324.875 243.890625 318.238281 243.890625 310.082031 C 243.890625 301.925781 250.527344 295.289062 258.683594 295.289062 Z M 189.703125 196.316406 L 130.535156 230.453125 L 71.371094 196.316406 L 71.371094 128.050781 L 130.535156 93.910156 L 189.703125 128.050781 Z M 189.703125 196.316406 " fill-opacity="1" fill-rule="nonzero"/></g><path stroke-linecap="butt" transform="matrix(0.000000000000000713, -0.750698, 0.75, 0.000000000000000712, 369.9952, 309.879325)" fill="none" stroke-linejoin="miter" d="M 0.000557864 1.001192 L 268.755794 1.001192 " stroke="#000000" stroke-width="2" stroke-opacity="1" stroke-miterlimit="4"/></svg>